<?xml version="1.0" encoding="UTF-8" standalone="no"?>
<!-- Created with Inkscape (http://www.inkscape.org/) -->

<svg
   width="256mm"
   height="256mm"
   viewBox="0 0 256 256"
   version="1.1"
   id="svg1"
   inkscape:version="1.4.4 (dcaf3e7, 2026-05-05)"
   sodipodi:docname="TEd.svg"
   inkscape:export-filename="TEd.png"
   inkscape:export-xdpi="1.5875"
   inkscape:export-ydpi="1.5875"
   xmlns:inkscape="http://www.inkscape.org/namespaces/inkscape"
   xmlns:sodipodi="http://sodipodi.sourceforge.net/DTD/sodipodi-0.dtd"
   xmlns="http://www.w3.org/2000/svg"
   xmlns:svg="http://www.w3.org/2000/svg">
  <sodipodi:namedview
     id="namedview1"
     pagecolor="#ffffff"
     bordercolor="#000000"
     borderopacity="0.25"
     inkscape:showpageshadow="2"
     inkscape:pageopacity="0.0"
     inkscape:pagecheckerboard="0"
     inkscape:deskcolor="#d1d1d1"
     inkscape:document-units="mm"
     inkscape:zoom="0.68862935"
     inkscape:cx="397.89184"
     inkscape:cy="553.99904"
     inkscape:window-width="1920"
     inkscape:window-height="991"
     inkscape:window-x="-9"
     inkscape:window-y="-9"
     inkscape:window-maximized="1"
     inkscape:current-layer="svg1"
     showguides="true"
     inkscape:export-bgcolor="#ffffff00">
    <sodipodi:guide
       position="-111.03881,301.2264"
       orientation="0.70710678,-0.70710678"
       id="guide1"
       inkscape:locked="false" />
  </sodipodi:namedview>
  <defs
     id="defs1" />
  <g
     id="all"
     style="display:inline"
     transform="matrix(1.2674384,0,0,1.2674384,-3.6059066,-62.7419)">
    <rect
       style="fill:#000080;stroke-width:0.265;stroke-dasharray:none"
       id="rect1"
       width="150"
       height="200"
       x="29.200514"
       y="51.485126"
       rx="10.2" />
    <path
       style="font-size:47.7604px;font-family:'Eras Bold ITC';-inkscape-font-specification:'Eras Bold ITC';fill:#ffffff;stroke-width:0.896919"
       d="m 66.669868,112.04042 q 1.166025,-11.33377 1.39923,-24.952942 l -9.934536,0.256525 0.116602,-2.588576 q 0.09328,-2.075525 0.139923,-4.547499 6.623024,0.04664 15.438176,0.04664 l 5.760166,-0.02332 h 5.596921 l 3.031666,-0.02332 -0.139923,2.262089 q -0.09328,1.819 -0.139923,3.008346 -0.02332,1.189346 -0.02332,1.795679 -4.990589,-0.233205 -8.232139,-0.233205 h -1.632436 q -0.349808,4.12773 -0.536372,7.625806 -0.256525,5.013909 -0.396448,9.747967 -0.139923,4.71075 -0.139923,7.62581 -3.824563,-0.0466 -4.943948,-0.0466 -1.002782,0 -5.363716,0.0466 z m 23.203905,0 q 0.583012,-6.01669 0.839538,-10.07446 0.279846,-4.057767 0.536372,-10.774073 0.279846,-6.739627 0.279846,-8.931754 l -0.02332,-2.052205 q 5.50364,0.04664 13.316012,0.04664 7.20603,0 12.70967,-0.04664 l -0.0466,0.769577 q -0.0233,0.279846 -0.1166,2.028884 l -0.13992,2.541935 q -0.0466,0.816218 -0.0466,1.655756 -4.50086,-0.186564 -7.55585,-0.186564 -3.35815,0 -4.5475,0.02332 -1.16602,0 -3.66132,0.09328 l -0.27984,5.340396 q 2.75182,0.06996 6.41314,0.06996 1.30595,0 6.94951,-0.163243 -0.23321,2.985025 -0.44309,7.112755 -4.03445,-0.04664 -6.20326,-0.04664 -3.21823,0 -7.20603,0.163243 l -0.27985,5.66688 h 2.68186 q 1.18935,0 4.92063,-0.07 l 4.82734,-0.1166 q 1.07274,-0.0233 3.59136,-0.18656 -0.27985,3.45143 -0.46641,7.13607 -5.6902,-0.0466 -12.47647,-0.0466 l -10.261025,0.0233 z m 57.485057,0 q -2.4953,-0.0466 -4.15105,-0.0466 -1.86565,0 -4.52418,0.0466 l 0.13992,-2.9617 q -0.9095,0.88618 -1.58579,1.44587 -0.6763,0.53637 -1.74904,1.04942 -1.04943,0.51305 -2.28541,0.7929 -1.21267,0.27984 -2.51862,0.27984 -2.23877,0 -4.19769,-0.81621 -1.9356,-0.81622 -3.31151,-2.30873 -1.37591,-1.51584 -2.05221,-3.56804 -0.67629,-2.07553 -0.67629,-4.29098 0,-3.148264 1.23599,-6.156609 1.23598,-3.008346 3.21823,-4.734063 2.00556,-1.725718 4.50085,-2.425333 2.51862,-0.722936 5.43368,-0.722936 1.93561,0 4.52418,0.349808 0.18657,-2.77514 0.25653,-7.765729 2.86842,0.04664 4.68742,0.04664 2.35537,0 4.75738,-0.04664 -0.67629,6.926191 -1.18934,16.907368 -0.51305,9.981174 -0.51305,14.925124 z M 139.0334,94.036989 q -1.23598,-0.279846 -2.33205,-0.279846 -2.26209,0 -3.84788,0.886179 -1.58579,0.862859 -2.44865,2.728499 -0.83954,1.842321 -0.83954,3.637999 0,1.35259 0.46641,2.44865 0.48973,1.07275 1.46919,1.7024 1.00278,0.62965 2.21545,0.62965 1.28263,0 2.33205,-0.72293 1.07274,-0.72294 1.72572,-2.12217 0.67629,-1.39923 0.9095,-3.311509 0.25652,-1.935602 0.3498,-5.596922 z"
       id="text12"
       aria-label="TEd" />
    <g
       id="buttons"
       style="display:inline">
      <g
         id="circle"
         transform="translate(0,10.758085)"
         style="display:inline">
        <circle
           style="fill:#ffffff;stroke-width:0.318937;stroke-dasharray:none"
           id="path12"
           cx="103.73869"
           cy="175.20309"
           r="52.253559" />
        <circle
           style="fill:#000080;fill-opacity:1;stroke-width:0.218097;stroke-dasharray:none"
           id="circle12"
           cx="103.73869"
           cy="175.20309"
           r="35.732212" />
      </g>
      <g
         id="play_pause"
         style="display:inline"
         transform="matrix(0.76307976,0,0,0.76307976,22.539021,43.794183)">
        <path
           sodipodi:type="star"
           style="fill:#ffffff;stroke-width:0.264999"
           id="path1"
           inkscape:flatsided="false"
           sodipodi:sides="3"
           sodipodi:cx="91.443726"
           sodipodi:cy="34.579559"
           sodipodi:r1="26.666454"
           sodipodi:r2="13.333227"
           sodipodi:arg1="2.0943951"
           sodipodi:arg2="3.1415927"
           inkscape:rounded="0"
           inkscape:randomized="0"
           d="m 78.110498,57.673386 0,-23.093827 0,-23.093827 19.999842,11.546914 19.99984,11.546913 -19.999841,11.546914 z"
           inkscape:transform-center-x="-4.6814902"
           transform="matrix(0.70222919,0,0,0.70222919,26.716982,160.56501)"
           inkscape:transform-center-y="4.0179917e-06" />
        <g
           id="g3"
           inkscape:label="g3"
           transform="translate(-1.152652)">
          <rect
             style="fill:#ffffff;stroke-width:0.264999"
             id="rect2"
             width="8.0685635"
             height="32.274254"
             x="112.95989"
             y="168.6714" />
          <rect
             style="fill:#ffffff;stroke-width:0.264999"
             id="rect3"
             width="8.0685635"
             height="32.274254"
             x="124.4864"
             y="168.6714" />
        </g>
      </g>
    </g>
  </g>
</svg>
